<?xml version="1.0" encoding="UTF-8"?>
<svg xmlns="http://www.w3.org/2000/svg" version="1.1" width="300" height="300" viewBox="0 0 300 300"><rect x="0" y="0" width="300" height="300" fill="#ffffff"/><g transform="scale(7.317)"><g transform="translate(0,0)"><path fill-rule="evenodd" d="M8 0L8 1L9 1L9 2L8 2L8 5L10 5L10 7L9 7L9 6L8 6L8 7L9 7L9 8L8 8L8 9L10 9L10 8L11 8L11 9L12 9L12 7L13 7L13 6L12 6L12 4L11 4L11 3L13 3L13 2L14 2L14 0L13 0L13 1L12 1L12 0L11 0L11 1L10 1L10 0ZM15 0L15 1L16 1L16 2L15 2L15 3L14 3L14 4L13 4L13 5L14 5L14 8L13 8L13 9L15 9L15 3L16 3L16 4L17 4L17 5L18 5L18 4L17 4L17 3L18 3L18 2L19 2L19 1L20 1L20 0L19 0L19 1L18 1L18 0ZM21 0L21 1L22 1L22 4L24 4L24 5L25 5L25 3L26 3L26 4L27 4L27 3L28 3L28 2L30 2L30 1L32 1L32 3L29 3L29 4L28 4L28 5L29 5L29 6L28 6L28 7L27 7L27 6L26 6L26 9L25 9L25 11L24 11L24 9L23 9L23 8L24 8L24 7L25 7L25 6L24 6L24 7L23 7L23 5L21 5L21 2L20 2L20 5L19 5L19 6L18 6L18 7L17 7L17 6L16 6L16 7L17 7L17 8L16 8L16 9L18 9L18 8L19 8L19 10L20 10L20 11L18 11L18 10L16 10L16 11L15 11L15 10L14 10L14 11L12 11L12 12L11 12L11 11L10 11L10 12L11 12L11 13L9 13L9 14L8 14L8 15L7 15L7 14L6 14L6 15L7 15L7 16L6 16L6 17L4 17L4 16L3 16L3 15L5 15L5 14L4 14L4 12L3 12L3 11L7 11L7 12L6 12L6 13L8 13L8 12L9 12L9 11L8 11L8 10L6 10L6 9L7 9L7 8L6 8L6 9L5 9L5 10L4 10L4 8L0 8L0 10L2 10L2 13L0 13L0 15L1 15L1 16L2 16L2 17L3 17L3 18L4 18L4 19L0 19L0 21L1 21L1 23L0 23L0 24L1 24L1 25L0 25L0 27L1 27L1 28L0 28L0 29L3 29L3 30L2 30L2 32L1 32L1 33L2 33L2 32L3 32L3 31L4 31L4 32L5 32L5 31L9 31L9 32L8 32L8 34L9 34L9 36L10 36L10 37L8 37L8 41L9 41L9 40L10 40L10 37L11 37L11 38L12 38L12 40L11 40L11 41L13 41L13 39L14 39L14 40L16 40L16 39L14 39L14 38L15 38L15 37L17 37L17 39L18 39L18 40L17 40L17 41L19 41L19 39L21 39L21 41L22 41L22 39L21 39L21 38L22 38L22 37L23 37L23 35L24 35L24 33L25 33L25 31L23 31L23 32L24 32L24 33L23 33L23 34L20 34L20 33L21 33L21 32L20 32L20 30L21 30L21 31L22 31L22 30L21 30L21 28L23 28L23 30L26 30L26 31L27 31L27 32L28 32L28 33L30 33L30 34L31 34L31 35L30 35L30 36L28 36L28 35L27 35L27 36L26 36L26 35L25 35L25 36L24 36L24 38L26 38L26 40L23 40L23 41L26 41L26 40L27 40L27 38L28 38L28 37L30 37L30 38L32 38L32 41L33 41L33 38L34 38L34 37L35 37L35 38L38 38L38 39L37 39L37 40L36 40L36 39L34 39L34 40L36 40L36 41L37 41L37 40L38 40L38 39L39 39L39 41L40 41L40 39L41 39L41 37L40 37L40 36L41 36L41 35L40 35L40 36L38 36L38 35L37 35L37 33L38 33L38 34L39 34L39 32L41 32L41 31L39 31L39 29L38 29L38 28L36 28L36 27L37 27L37 26L35 26L35 25L34 25L34 27L35 27L35 30L34 30L34 31L33 31L33 29L34 29L34 28L31 28L31 27L32 27L32 25L33 25L33 24L32 24L32 23L31 23L31 22L30 22L30 23L31 23L31 24L28 24L28 23L29 23L29 21L30 21L30 19L31 19L31 16L30 16L30 19L29 19L29 18L28 18L28 17L29 17L29 15L32 15L32 14L31 14L31 12L32 12L32 13L33 13L33 12L34 12L34 11L33 11L33 12L32 12L32 11L31 11L31 12L29 12L29 13L28 13L28 12L27 12L27 11L26 11L26 9L28 9L28 10L29 10L29 11L30 11L30 10L32 10L32 8L33 8L33 10L35 10L35 12L36 12L36 10L38 10L38 11L39 11L39 12L37 12L37 13L38 13L38 15L39 15L39 19L37 19L37 18L38 18L38 16L35 16L35 15L36 15L36 14L35 14L35 13L34 13L34 14L33 14L33 15L34 15L34 16L35 16L35 18L33 18L33 16L32 16L32 19L33 19L33 20L31 20L31 21L32 21L32 22L33 22L33 23L35 23L35 24L36 24L36 23L37 23L37 24L38 24L38 27L39 27L39 28L40 28L40 27L41 27L41 23L40 23L40 22L41 22L41 20L40 20L40 22L39 22L39 23L40 23L40 24L38 24L38 22L37 22L37 20L38 20L38 21L39 21L39 19L40 19L40 15L41 15L41 13L40 13L40 11L39 11L39 10L38 10L38 9L39 9L39 8L36 8L36 9L34 9L34 8L33 8L33 6L32 6L32 5L33 5L33 0L30 0L30 1L29 1L29 0L28 0L28 2L27 2L27 0L26 0L26 1L24 1L24 0L23 0L23 1L22 1L22 0ZM11 1L11 2L9 2L9 3L11 3L11 2L12 2L12 1ZM17 1L17 2L16 2L16 3L17 3L17 2L18 2L18 1ZM23 2L23 3L25 3L25 2ZM11 6L11 7L12 7L12 6ZM19 6L19 8L20 8L20 6ZM21 6L21 8L22 8L22 6ZM29 6L29 7L30 7L30 6ZM31 6L31 8L32 8L32 6ZM40 8L40 10L41 10L41 8ZM20 9L20 10L21 10L21 9ZM22 9L22 10L23 10L23 9ZM29 9L29 10L30 10L30 9ZM17 11L17 12L16 12L16 13L15 13L15 12L13 12L13 13L14 13L14 14L12 14L12 16L11 16L11 14L9 14L9 15L10 15L10 16L9 16L9 19L6 19L6 18L8 18L8 16L7 16L7 17L6 17L6 18L5 18L5 20L9 20L9 19L10 19L10 18L11 18L11 19L12 19L12 20L11 20L11 22L10 22L10 24L9 24L9 25L10 25L10 26L8 26L8 23L6 23L6 22L7 22L7 21L6 21L6 22L5 22L5 23L2 23L2 24L5 24L5 25L4 25L4 26L2 26L2 28L4 28L4 29L5 29L5 30L7 30L7 29L5 29L5 28L8 28L8 27L10 27L10 26L11 26L11 28L10 28L10 29L11 29L11 30L10 30L10 31L11 31L11 32L10 32L10 33L11 33L11 34L10 34L10 35L11 35L11 37L12 37L12 38L14 38L14 36L17 36L17 37L18 37L18 39L19 39L19 38L20 38L20 36L21 36L21 35L20 35L20 34L19 34L19 33L20 33L20 32L19 32L19 30L18 30L18 32L17 32L17 33L18 33L18 34L15 34L15 33L14 33L14 35L13 35L13 33L11 33L11 32L12 32L12 31L11 31L11 30L12 30L12 29L13 29L13 30L14 30L14 27L15 27L15 28L16 28L16 29L15 29L15 31L13 31L13 32L15 32L15 31L17 31L17 28L18 28L18 29L20 29L20 28L21 28L21 27L22 27L22 25L21 25L21 26L20 26L20 27L19 27L19 25L20 25L20 24L23 24L23 28L26 28L26 29L27 29L27 30L29 30L29 29L31 29L31 28L30 28L30 27L31 27L31 25L32 25L32 24L31 24L31 25L30 25L30 26L27 26L27 28L26 28L26 27L24 27L24 24L25 24L25 22L26 22L26 23L28 23L28 22L27 22L27 21L28 21L28 20L29 20L29 19L28 19L28 20L27 20L27 21L26 21L26 18L27 18L27 16L28 16L28 13L27 13L27 14L26 14L26 13L25 13L25 12L24 12L24 11L23 11L23 12L22 12L22 11L20 11L20 12L19 12L19 14L18 14L18 15L17 15L17 17L15 17L15 16L16 16L16 15L15 15L15 16L14 16L14 14L16 14L16 13L18 13L18 11ZM21 12L21 15L19 15L19 17L20 17L20 16L22 16L22 17L21 17L21 18L22 18L22 19L20 19L20 20L18 20L18 21L17 21L17 22L16 22L16 21L15 21L15 19L16 19L16 20L17 20L17 19L18 19L18 17L17 17L17 19L16 19L16 18L12 18L12 17L13 17L13 16L12 16L12 17L11 17L11 16L10 16L10 17L11 17L11 18L12 18L12 19L13 19L13 20L12 20L12 22L11 22L11 23L13 23L13 25L14 25L14 26L13 26L13 27L12 27L12 28L11 28L11 29L12 29L12 28L13 28L13 27L14 27L14 26L15 26L15 25L16 25L16 28L17 28L17 26L18 26L18 25L16 25L16 24L17 24L17 22L18 22L18 24L20 24L20 23L19 23L19 21L21 21L21 22L22 22L22 21L21 21L21 20L22 20L22 19L23 19L23 18L24 18L24 19L25 19L25 17L26 17L26 16L27 16L27 15L26 15L26 14L25 14L25 13L24 13L24 12L23 12L23 13L24 13L24 14L25 14L25 15L26 15L26 16L25 16L25 17L23 17L23 16L24 16L24 15L22 15L22 12ZM29 13L29 14L30 14L30 13ZM34 14L34 15L35 15L35 14ZM36 17L36 18L35 18L35 19L34 19L34 20L35 20L35 21L36 21L36 18L37 18L37 17ZM1 20L1 21L2 21L2 22L3 22L3 21L4 21L4 20L3 20L3 21L2 21L2 20ZM8 21L8 22L9 22L9 21ZM13 21L13 22L15 22L15 24L14 24L14 25L15 25L15 24L16 24L16 22L15 22L15 21ZM23 21L23 24L24 24L24 22L25 22L25 21ZM6 24L6 25L5 25L5 26L4 26L4 27L5 27L5 26L6 26L6 27L7 27L7 26L6 26L6 25L7 25L7 24ZM10 24L10 25L11 25L11 24ZM27 24L27 25L28 25L28 24ZM25 25L25 26L26 26L26 25ZM39 26L39 27L40 27L40 26ZM28 27L28 28L27 28L27 29L29 29L29 27ZM36 29L36 30L35 30L35 31L34 31L34 32L37 32L37 30L38 30L38 29ZM0 30L0 31L1 31L1 30ZM30 30L30 32L31 32L31 34L32 34L32 32L33 32L33 31L32 31L32 30ZM28 31L28 32L29 32L29 31ZM31 31L31 32L32 32L32 31ZM6 32L6 33L7 33L7 32ZM18 32L18 33L19 33L19 32ZM33 33L33 36L36 36L36 33ZM40 33L40 34L41 34L41 33ZM11 34L11 35L12 35L12 34ZM18 34L18 35L17 35L17 36L18 36L18 35L19 35L19 36L20 36L20 35L19 35L19 34ZM34 34L34 35L35 35L35 34ZM31 35L31 37L32 37L32 38L33 38L33 37L32 37L32 35ZM27 36L27 37L26 37L26 38L27 38L27 37L28 37L28 36ZM37 36L37 37L38 37L38 38L40 38L40 37L38 37L38 36ZM30 40L30 41L31 41L31 40ZM0 0L0 7L7 7L7 0ZM1 1L1 6L6 6L6 1ZM2 2L2 5L5 5L5 2ZM34 0L34 7L41 7L41 0ZM35 1L35 6L40 6L40 1ZM36 2L36 5L39 5L39 2ZM0 34L0 41L7 41L7 34ZM1 35L1 40L6 40L6 35ZM2 36L2 39L5 39L5 36Z" fill="#000000"/></g></g></svg>
